<svg width="512" height="512" viewBox="0 0 512 512" xmlns="http://www.w3.org/2000/svg">
<defs>
<linearGradient id="gradBlue" x1="0" y1="0" x2="1" y2="1">
<stop offset="0" stop-color="#2F80FF"/>
<stop offset="1" stop-color="#22D3EE"/>
</linearGradient>
</defs>
<rect x="0" y="0" width="512" height="512" rx="118" fill="#141A24"/>
<g transform="translate(40,40)">
<g id="mark">
<line x1="216" y1="216" x2="113" y2="113" stroke="url(#gradBlue)" stroke-width="3" opacity="0.35"/>
<line x1="216" y1="216" x2="216" y2="113" stroke="url(#gradBlue)" stroke-width="3" opacity="0.35"/>
<line x1="216" y1="216" x2="319" y2="113" stroke="url(#gradBlue)" stroke-width="3" opacity="0.35"/>
<line x1="216" y1="216" x2="113" y2="216" stroke="url(#gradBlue)" stroke-width="3" opacity="0.35"/>
<line x1="216" y1="216" x2="319" y2="216" stroke="url(#gradBlue)" stroke-width="3" opacity="0.35"/>
<line x1="216" y1="216" x2="113" y2="319" stroke="url(#gradBlue)" stroke-width="3" opacity="0.35"/>
<line x1="216" y1="216" x2="216" y2="319" stroke="url(#gradBlue)" stroke-width="3" opacity="0.35"/>
<line x1="216" y1="216" x2="319" y2="319" stroke="url(#gradBlue)" stroke-width="3" opacity="0.35"/>

<rect x="82" y="82" width="62" height="62" rx="14" fill="none" stroke="url(#gradBlue)" stroke-width="4" opacity="0.7"/>
<rect x="185" y="82" width="62" height="62" rx="14" fill="none" stroke="url(#gradBlue)" stroke-width="4" opacity="0.7"/>
<rect x="288" y="82" width="62" height="62" rx="14" fill="none" stroke="url(#gradBlue)" stroke-width="4" opacity="0.7"/>
<rect x="82" y="185" width="62" height="62" rx="14" fill="none" stroke="url(#gradBlue)" stroke-width="4" opacity="0.7"/>
<rect x="288" y="185" width="62" height="62" rx="14" fill="none" stroke="url(#gradBlue)" stroke-width="4" opacity="0.7"/>
<rect x="82" y="288" width="62" height="62" rx="14" fill="none" stroke="url(#gradBlue)" stroke-width="4" opacity="0.7"/>
<rect x="185" y="288" width="62" height="62" rx="14" fill="none" stroke="url(#gradBlue)" stroke-width="4" opacity="0.7"/>
<rect x="288" y="288" width="62" height="62" rx="14" fill="none" stroke="url(#gradBlue)" stroke-width="4" opacity="0.7"/>

<circle cx="216" cy="216" r="54" fill="none" stroke="#E4572E" stroke-width="4" opacity="0.85"/>
<circle cx="216" cy="216" r="46" fill="url(#gradBlue)"/>
<path d="M205 213 v-11 a11 11 0 0 1 22 0 v11" fill="none" stroke="#101620" stroke-width="4"/>
<rect x="200" y="213" width="32" height="24" rx="4" fill="#101620"/>
</g>
</g>
</svg>